HIERARCHY
ROOT Hips
{
	OFFSET	0.00	0.00	0.00
	CHANNELS 6 Xposition Yposition Zposition Zrotation Xrotation Yrotation
	JOINT LeftUpLeg
	{
		OFFSET	 0.126116	-0.014019	-0.065224
		CHANNELS 3 Zrotation Xrotation Yrotation
		JOINT LeftLeg
		{
			OFFSET	 0.000000	 0.000000	 0.569914
			CHANNELS 3 Zrotation Xrotation Yrotation
			JOINT LeftFoot
			{
				OFFSET	 0.000000	 0.000000	 0.544423
				CHANNELS 3 Zrotation Xrotation Yrotation
				JOINT LeftToeBase
				{
					OFFSET	 0.000000	 0.000000	 0.207117
					CHANNELS 3 Zrotation Xrotation Yrotation
					End Site
					{
						OFFSET	 0.000000	 0.000000	 0.207117
					}
				}
			}
		}
	}
	JOINT RightUpLeg
	{
		OFFSET	-0.124023	-0.008373	-0.065224
		CHANNELS 3 Zrotation Xrotation Yrotation
		JOINT RightLeg
		{
			OFFSET	 0.000000	 0.000000	 0.570047
			CHANNELS 3 Zrotation Xrotation Yrotation
			JOINT RightFoot
			{
				OFFSET	 0.000000	 0.000000	 0.544354
				CHANNELS 3 Zrotation Xrotation Yrotation
				JOINT RightToeBase
				{
					OFFSET	 0.000000	 0.000000	 0.207540
					CHANNELS 3 Zrotation Xrotation Yrotation
					End Site
					{
						OFFSET	 0.000000	 0.000000	 0.207540
					}
				}
			}
		}
	}
	JOINT Spine
	{
		OFFSET	 0.000184	-0.007763	 0.117403
		CHANNELS 3 Zrotation Xrotation Yrotation
		JOINT Spine1
		{
			OFFSET	 0.000000	 0.000000	 0.137269
			CHANNELS 3 Zrotation Xrotation Yrotation
			JOINT Spine2
			{
				OFFSET	 0.000000	 0.000000	 0.156879
				CHANNELS 3 Zrotation Xrotation Yrotation
				JOINT LeftShoulder
				{
					OFFSET	 0.080501	-0.002496	 0.160144
					CHANNELS 3 Zrotation Xrotation Yrotation
					JOINT LeftArm
					{
						OFFSET	 0.000000	 0.000000	 0.164363
						CHANNELS 3 Zrotation Xrotation Yrotation
						JOINT LeftForeArm
						{
							OFFSET	 0.000000	 0.000000	 0.364576
							CHANNELS 3 Zrotation Xrotation Yrotation
							JOINT LeftHand
							{
								OFFSET	 0.000000	 0.000000	 0.360812
								CHANNELS 3 Zrotation Xrotation Yrotation
								JOINT LeftHandIndex1
								{
									OFFSET	 0.000000	 0.000000	 0.086006
									CHANNELS 3 Zrotation Xrotation Yrotation
									JOINT LeftHandIndex2
									{
										OFFSET	 0.000000	 0.000000	 0.047236
										CHANNELS 3 Zrotation Xrotation Yrotation
										JOINT LeftHandIndex3
										{
											OFFSET	-0.004284	-0.000551	 0.038166
											CHANNELS 3 Zrotation Xrotation Yrotation
											End Site
											{
												OFFSET	-0.004284	-0.000551	 0.038166
											}
										}
									}
								}
							}
						}
					}
				}
				JOINT Neck
				{
					OFFSET	 0.000000	 0.000000	 0.176489
					CHANNELS 3 Zrotation Xrotation Yrotation
					JOINT Head
					{
						OFFSET	 0.000000	-0.001747	 0.077940
						CHANNELS 3 Zrotation Xrotation Yrotation
						End Site
						{
							OFFSET	 0.000000	-0.001747	 0.077940
						}
					}
				}
				JOINT RightShoulder
				{
					OFFSET	-0.080363	 0.000306	 0.159706
					CHANNELS 3 Zrotation Xrotation Yrotation
					JOINT RightArm
					{
						OFFSET	 0.000000	 0.000000	 0.164196
						CHANNELS 3 Zrotation Xrotation Yrotation
						JOINT RightForeArm
						{
							OFFSET	 0.000000	 0.000000	 0.365611
							CHANNELS 3 Zrotation Xrotation Yrotation
							JOINT RightHand
							{
								OFFSET	 0.000000	 0.000000	 0.360648
								CHANNELS 3 Zrotation Xrotation Yrotation
								JOINT RightHandIndex1
								{
									OFFSET	 0.000000	 0.000000	 0.069977
									CHANNELS 3 Zrotation Xrotation Yrotation
									JOINT RightHandIndex2
									{
										OFFSET	 0.000000	 0.000000	 0.052305
										CHANNELS 3 Zrotation Xrotation Yrotation
										JOINT RightHandIndex3
										{
											OFFSET	 0.009002	-0.000782	 0.042196
											CHANNELS 3 Zrotation Xrotation Yrotation
											End Site
											{
												OFFSET	 0.009002	-0.000782	 0.042196
											}
										}
									}
								}
							}
						}
					}
				}
			}
		}
	}
}
MOTION
Frames:    6
Frame Time: 0.03333334
-0.000638	 0.019905	 1.268578	 0.002893	-0.001764	-0.185071	-4.724455	-2.515715	 178.783900	 1.448171	-13.815270	-0.810568	-6.735279	 72.264330	 0.579116	-2.385833	 28.452760	 0.000004	 4.650959	-3.200567	-178.445600	-1.420552	-14.803890	 0.855135	 6.727412	 72.606810	-0.696116	 2.384658	 28.388730	 0.000004	 4.256153	 2.851019	-0.121519	 2.169554	 3.305342	 0.875701	-6.534862	-4.017687	-1.390202	-91.776180	 78.527430	 180.000000	 69.571940	 44.412200	-57.305400	-8.036140	 2.442529	-6.109245	-29.149600	 2.947206	-4.355538	-2.635965	 4.993658	 6.788941	-5.165319	 0.784187	 3.516649	-5.225038	 0.466231	 0.424329	-0.000002	-3.783157	-0.089647	-6.373561	 4.841950	 0.269731	 89.782070	 78.203850	-180.000000	-62.981150	 41.377480	 53.220150	 7.392655	 5.612705	 12.936620	 28.311570	 2.037436	 8.894965	 6.112037	 4.509576	-0.364401	 4.968462	 1.518543	-9.347576	 5.168945	 0.703820	 2.021906
-0.000628	 0.020046	 1.266449	 0.003132	-0.002211	-0.180153	-4.811848	-3.356676	 178.850600	 1.421146	-15.548970	-0.917171	-7.257602	 73.142150	 1.126486	-2.385833	 28.452760	 0.000004	 4.740543	-3.984075	-178.515200	-1.394094	-16.418480	 0.953449	 7.221651	 73.424150	-1.213596	 2.384658	 28.388730	 0.000004	 4.217539	 2.921985	-0.130851	 2.146998	 3.057499	 0.881558	-6.470010	-3.704096	-1.354362	-91.776160	 78.527470	 180.000000	 69.408260	 44.362350	-57.204780	-8.026762	 2.497367	-6.247122	-29.149640	 2.947198	-4.355535	-2.635965	 4.993658	 6.788941	-5.165319	 0.784187	 3.516649	-5.225038	 0.466231	 0.424329	-0.000002	-3.783157	-0.089647	-6.324381	 4.998380	 0.276304	 89.782130	 78.203870	 180.000000	-62.721820	 41.230000	 53.404550	 7.209089	 5.541246	 12.888590	 28.234290	 1.950343	 8.836547	 6.112037	 4.509576	-0.364401	 4.968462	 1.518543	-9.347576	 5.168945	 0.703820	 2.021906
-0.000619	 0.020208	 1.264029	 0.003592	-0.002045	-0.172647	-4.908887	-4.214643	 178.915600	 1.389850	-17.317570	-1.027795	-7.852781	 74.036370	 1.747588	-2.385833	 28.452760	 0.000004	 4.839532	-4.793462	-178.588900	-1.363474	-18.085380	 1.056684	 7.789464	 74.266820	-1.805420	 2.384658	 28.388730	 0.000004	 4.144178	 3.001441	-0.140305	 2.107300	 2.777036	 0.882307	-6.353482	-3.352131	-1.305799	-91.776240	 78.527450	-180.000000	 69.216760	 44.307970	-57.083050	-8.014964	 2.557782	-6.399107	-29.149580	 2.947192	-4.355535	-2.635965	 4.993658	 6.788941	-5.165319	 0.784187	 3.516649	-5.225038	 0.466231	 0.424329	-0.000002	-3.783157	-0.089647	-6.225745	 5.180424	 0.281906	 89.782100	 78.203890	 180.000000	-62.461810	 40.965020	 53.791650	 6.935644	 5.373460	 12.675020	 28.239080	 1.762517	 8.721697	 6.112037	 4.509576	-0.364401	 4.968462	 1.518543	-9.347576	 5.168945	 0.703820	 2.021906
-0.000610	 0.020388	 1.261385	 0.004203	-0.001049	-0.162328	-5.013398	-5.066697	 178.977000	 1.354882	-19.073550	-1.139760	-8.516992	 74.922700	 2.437800	-2.385833	 28.452760	 0.000004	 4.945259	-5.604522	-178.665100	-1.329316	-19.754170	 1.162022	 8.426323	 75.109020	-2.466432	 2.384658	 28.388730	 0.000004	 4.027436	 3.086375	-0.148700	 2.046580	 2.473702	 0.875051	-6.173203	-2.974927	-1.243639	-91.776080	 78.527470	 179.999900	 69.002170	 44.251160	-56.943000	-8.001050	 2.619869	-6.555289	-29.149570	 2.947195	-4.355549	-2.635965	 4.993658	 6.788941	-5.165319	 0.784187	 3.516649	-5.225038	 0.466231	 0.424329	-0.000002	-3.783157	-0.089647	-6.064691	 5.383367	 0.285372	 89.782140	 78.203900	 180.000000	-62.186950	 40.568770	 54.426730	 6.574046	 5.089583	 12.237920	 28.336190	 1.466872	 8.546564	 6.112037	 4.509576	-0.364401	 4.968462	 1.518543	-9.347576	 5.168945	 0.703820	 2.021906
-0.000600	 0.020548	 1.259036	 0.004776	-0.000082	-0.152324	-5.120919	-5.765096	 179.027000	 1.323161	-20.514590	-1.233424	-9.152548	 75.648100	 3.079385	-2.385833	 28.452760	 0.000004	 5.021939	-6.274271	-178.728000	-1.298377	-21.131020	 1.250601	 8.984827	 75.803250	-3.059834	 2.384658	 28.388730	 0.000004	 3.891745	 3.160001	-0.153231	 1.977588	 2.210159	 0.860951	-5.967026	-2.650001	-1.181210	-91.776120	 78.527400	 180.000000	 68.804380	 44.201690	-56.798270	-7.986767	 2.679800	-6.706240	-29.149580	 2.947193	-4.355542	-2.635965	 4.993658	 6.788941	-5.165319	 0.784187	 3.516649	-5.225038	 0.466231	 0.424329	-0.000002	-3.783157	-0.089647	-5.874917	 5.564918	 0.285764	 89.782100	 78.203870	 180.000000	-61.870680	 40.187840	 55.112650	 6.235801	 4.780468	 11.708320	 28.426340	 1.194643	 8.385832	 6.112037	 4.509576	-0.364401	 4.968462	 1.518543	-9.347576	 5.168945	 0.703820	 2.021906
-0.000588	 0.020715	 1.256613	 0.005339	 0.000937	-0.141243	-5.214606	-6.440327	 179.072700	 1.289786	-21.907560	-1.325658	-9.805745	 76.348430	 3.753398	-2.385833	 28.452760	 0.000004	 5.115071	-6.923485	-178.791400	-1.265866	-22.466840	 1.338131	 9.610412	 76.474960	-3.705205	 2.384658	 28.388730	 0.000004	 3.720278	 3.233644	-0.154760	 1.891646	 1.946196	 0.838489	-5.709189	-2.327133	-1.110367	-91.776160	 78.527450	 180.000000	 68.594320	 44.151350	-56.630180	-7.970437	 2.744919	-6.870167	-29.149570	 2.947193	-4.355516	-2.635965	 4.993658	 6.788941	-5.165319	 0.784187	 3.516649	-5.225038	 0.466231	 0.424329	-0.000002	-3.783157	-0.089647	-5.633080	 5.751723	 0.283192	 89.782170	 78.203890	 179.999900	-61.446130	 39.741270	 55.894310	 5.789244	 4.429781	 11.116000	 28.534910	 0.883874	 8.204370	 6.112037	 4.509576	-0.364401	 4.968462	 1.518543	-9.347576	 5.168945	 0.703820	 2.021906
